# xmcd
#
# Track frame offsets:
# 183
# 15813
# 35540
# 54965
#
# Disc length: 1041 seconds
#
#
# Revision: 0
# Processed by: cddbd v1.5.1PL0 Copyright (c) Steve Scherf et al.
# Submitted via: FreeRIP 2.941 
#
DISCID=1f040f04
DTITLE=Portishead - Sour Timea (single)
DYEAR=1994
DGENRE=Trip-Hop
TTITLE0=Sour Times (Edit)
TTITLE1=Lot More
TTITLE2=Sheared Times
TTITLE3=Airbus Reconstruction
EXTD=
EXTT0=
EXTT1=
EXTT2=
EXTT3=
PLAYORDER=
